<svg id="Layer_1" data-name="Layer 1" xmlns="http://www.w3.org/2000/svg" viewBox="0 0 200 200"><path d="M154.52,131.48v22.17a17.13,17.13,0,0,1-15.75,17.07L110.41,173a141.23,141.23,0,0,1-22.53,0l-28.36-2.29a17.13,17.13,0,0,1-15.75-17.07V131.53" style="fill:#040505"/><path d="M157.84,113.61V137a18.1,18.1,0,0,1-16.64,18l-30,2.42a150.09,150.09,0,0,1-23.8,0l-30-2.42a18.1,18.1,0,0,1-16.64-18V113.66" style="fill:#fff"/><path d="M139,144.12l-28.36,2.29a141.1,141.1,0,0,1-22.52,0l-28.37-2.29A17.14,17.14,0,0,1,44,127.05V35.4a17.12,17.12,0,0,1,14.78-17l1.16-.17A288.4,288.4,0,0,1,140,18.4h0a17.11,17.11,0,0,1,14.72,17v91.69A17.13,17.13,0,0,1,139,144.12Z" style="fill:#040505"/><rect x="17.29" y="48.17" width="19.97" height="104.3" rx="6.01" style="fill:#040505"/><rect x="161.41" y="50.94" width="19.97" height="104.3" rx="6.01" style="fill:#040505"/></svg>