<svg id="Layer_1" data-name="Layer 1" xmlns="http://www.w3.org/2000/svg" xmlns:xlink="http://www.w3.org/1999/xlink" viewBox="0 0 1079.74 1909.66"><defs><linearGradient id="linear-gradient" x1="539.91" y1="10.64" x2="539.91" y2="1920.3" gradientUnits="userSpaceOnUse"><stop offset="0" stop-color="#fff" stop-opacity="0"/><stop offset="0.47" stop-color="#fff" stop-opacity="0.5"/></linearGradient></defs><path d="M519.84,1985.11" transform="translate(-0.04 -10.64)" style="fill:#2d2c2c"/><path d="M1079.78,1919.3l-.15-54L880.21,1701.67s-28.81-19.79-59.54-75.33v.35c-2-111.94-6.68-1120.17-15.3-1213.84C789.06,235.74,564.65,10.64,519.86,10.64h-.05c-44.78,0-269.2,225.1-285.51,402.21C225.68,506.52,221,1514.75,219,1626.69v-.35c-30.73,55.54-59.54,75.33-59.54,75.33L0,1858.33l1.85,62" transform="translate(-0.04 -10.64)" style="fill:url(#linear-gradient)"/><path d="M759.18,1985.08" transform="translate(-0.04 -10.64)" style="fill:#2d2c2c"/></svg>