<svg id="Layer_1" data-name="Layer 1" xmlns="http://www.w3.org/2000/svg" viewBox="0 0 200 200"><path d="M155.18,137v22.16a17.13,17.13,0,0,1-15.75,17.08l-28.36,2.29a141.23,141.23,0,0,1-22.53,0l-28.36-2.29a17.13,17.13,0,0,1-15.75-17.08V137" style="fill:#294396"/><path d="M158.51,119.11v23.42a18.11,18.11,0,0,1-16.65,18l-30,2.42a150.09,150.09,0,0,1-23.8,0l-30-2.42a18.11,18.11,0,0,1-16.65-18V119.16" style="fill:#fff"/><path d="M139.62,149.62l-28.36,2.29a141.1,141.1,0,0,1-22.52,0l-28.36-2.29a17.14,17.14,0,0,1-15.76-17.08V40.9a17.14,17.14,0,0,1,14.78-17l1.16-.16a288.39,288.39,0,0,1,80.09.13h0a17.12,17.12,0,0,1,14.73,17v91.68A17.14,17.14,0,0,1,139.62,149.62Z" style="fill:#294396"/><rect x="17.96" y="53.67" width="19.97" height="104.3" rx="6.01" style="fill:#294396"/><rect x="162.07" y="56.43" width="19.97" height="104.3" rx="6.01" style="fill:#294396"/></svg>